<?xml version="1.0" encoding="UTF-8" standalone="no"?>
<!-- Created with Inkscape (http://www.inkscape.org/) -->

<svg
   width="98.624634mm"
   height="52.776375mm"
   viewBox="0 0 98.624634 52.776375"
   version="1.1"
   id="svg1"
   xml:space="preserve"
   xmlns="http://www.w3.org/2000/svg"
   xmlns:svg="http://www.w3.org/2000/svg"><defs
     id="defs1" /><g
     id="layer1"
     transform="translate(-42.850772,-121.64322)"><g
       id="g10"
       transform="translate(-9.0156114,39.926279)"><g
         id="g15"
         transform="matrix(0.61251344,0,0,0.61251344,5.8327574,145.89631)"
         style="stroke-width:1.63262"><path
           style="fill:#71d5a7;stroke-width:1.63262"
           d="m 159.08962,-30.201097 c -1.94815,-0.71315 -2.67666,-1.26554 -3.01299,-2.28462 -0.37645,-1.14067 0.0819,-2.20676 1.17379,-2.73008 0.68964,-0.33054 0.9039,-0.30804 2.11425,0.22209 3.18258,1.39393 5.20416,1.36359 6.66784,-0.1001 0.75156,-0.75156 1.45219,-2.59901 1.11393,-2.93727 -0.061,-0.061 -0.69077,0.18269 -1.39952,0.5415 -1.51876,0.7689 -3.33746,0.8531 -5.37258,0.24874 -1.84544,-0.54804 -3.41334,-1.81893 -4.39826,-3.5651 -0.77352,-1.37136 -0.82081,-1.61528 -0.82081,-4.23333 0,-3.1454 0.27177,-3.94471 2.01437,-5.92441 1.52555,-1.73311 3.3288,-2.54226 5.66565,-2.54226 1.46643,0 2.16679,0.14136 3.13896,0.63353 l 1.25137,0.63352 0.63352,-0.63352 c 0.77809,-0.77809 2.4379,-0.86458 3.27217,-0.17051 0.54298,0.45173 0.55707,0.66402 0.57768,8.70262 0.0146,5.70875 -0.0766,8.56569 -0.29695,9.30126 -0.49513,1.65258 -2.06299,3.52446 -3.69675,4.41357 -1.32402,0.72055 -1.69585,0.79346 -4.35794,0.8545 -2.3111,0.053 -3.18992,-0.0356 -4.26773,-0.43013 z m 6.17158,-11.38694 c 1.78961,-1.0912 2.35385,-3.08408 1.45105,-5.12501 -0.67995,-1.53715 -1.84349,-2.29263 -3.53304,-2.29398 -2.7547,-0.002 -4.51122,3.19458 -3.19489,5.81457 0.97983,1.95023 3.46867,2.70695 5.27688,1.60442 z m 33.92909,4.99287 c -2.56819,-0.39181 -4.79207,-2.04157 -6.13184,-4.54885 -0.50526,-0.94555 -0.59694,-1.52349 -0.59694,-3.76296 0,-3.09278 0.47753,-4.37089 2.31149,-6.18669 1.62868,-1.61257 3.12769,-2.25339 5.54198,-2.36918 2.72377,-0.13064 4.2956,0.40703 6.15322,2.10479 2.08083,1.90176 2.65445,3.23652 2.65866,6.1865 0.003,2.0285 -0.0995,2.59681 -0.69108,3.83646 -1.6791,3.51832 -5.25068,5.34938 -9.24549,4.73993 z m 4.14961,-5.28572 c 1.42899,-1.31792 1.75679,-3.06311 0.921,-4.90343 -0.66516,-1.46462 -1.93699,-2.2237 -3.72581,-2.2237 -1.25545,0 -1.48558,0.0966 -2.39422,1.00526 -1.59894,1.59894 -1.73827,3.956 -0.3326,5.62655 0.92641,1.10097 1.51017,1.3159 3.31472,1.22044 1.16991,-0.0619 1.67797,-0.22806 2.21691,-0.72512 z m 12.27265,5.3065 c -2.89232,-0.38831 -5.02708,-1.80926 -5.02708,-3.34616 0,-0.73416 1.30579,-2.2083 1.95611,-2.2083 0.22512,0 1.14416,0.37342 2.04231,0.82983 1.91269,0.97195 3.49106,1.1001 4.07355,0.33073 0.20783,-0.27451 0.38165,-0.5884 0.38628,-0.69754 0.022,-0.51754 -1.18591,-1.27565 -2.8199,-1.7699 -2.67861,-0.81023 -3.8208,-1.54819 -4.53117,-2.92755 -1.2642,-2.45476 -0.23684,-5.17105 2.45365,-6.48738 1.33829,-0.65477 1.68043,-0.70976 3.78846,-0.60898 2.68244,0.12825 4.432,0.88706 5.05834,2.19386 0.33228,0.69329 0.3183,0.87664 -0.13081,1.71545 -0.61574,1.15001 -1.48813,1.32198 -2.94246,0.58003 -2.27397,-1.16009 -4.1549,-0.95527 -3.9924,0.43475 0.0962,0.82318 0.62834,1.13191 3.36072,1.94986 2.25672,0.67557 3.3442,1.48276 4.02916,2.99068 0.59762,1.31566 0.62059,2.24595 0.087,3.52518 -1.10683,2.65372 -4.09074,3.99232 -7.7918,3.49544 z m -40.23701,-0.77161 -0.7734,-0.7734 9.9e-4,-10.40525 c 9.3e-4,-9.84705 0.0286,-10.4506 0.51655,-11.25078 0.8342,-1.36813 3.24818,-1.44862 3.95293,-0.1318 0.14812,0.27677 0.28587,2.24484 0.30611,4.3735 l 0.0368,3.87029 1.23133,-0.84897 c 1.01382,-0.699 1.53918,-0.86658 2.97407,-0.94866 1.96384,-0.11235 3.27818,0.38789 4.51091,1.71684 1.59136,1.71558 1.67668,2.11727 1.76816,8.32512 l 0.0843,5.7212 -0.7153,0.56265 c -0.89851,0.70677 -2.22225,0.72187 -3.09508,0.0353 -0.66235,-0.52101 -0.67155,-0.58077 -0.76329,-4.96094 -0.0815,-3.89001 -0.15937,-4.54711 -0.63537,-5.35962 -1.01377,-1.73044 -2.81605,-1.99323 -4.19727,-0.61201 -0.98856,0.98855 -1.21022,2.15527 -1.21187,6.37872 -0.001,3.6621 -0.0221,3.80299 -0.6509,4.43177 -0.93843,0.93843 -2.32889,0.88682 -3.33967,-0.12396 z m 54.64369,0.40123 c -1.18778,-0.51736 -2.15018,-1.81409 -2.47685,-3.3373 -0.15849,-0.73901 -0.28816,-3.00468 -0.28816,-5.03481 v -3.69114 h -0.6746 c -0.86301,0 -2.12362,-0.6489 -2.33605,-1.20248 -0.4925,-1.28343 0.40288,-3.03085 1.55301,-3.03085 1.27903,0 1.45764,-0.22831 1.45764,-1.86317 0,-0.84808 0.11395,-1.84167 0.25322,-2.20798 0.35001,-0.9206 1.69836,-1.57496 2.81403,-1.36566 1.30667,0.24513 1.69525,0.98933 1.69525,3.24672 v 1.9255 h 1.39634 c 1.69811,0 2.49272,0.4968 2.71836,1.69954 0.16362,0.87219 -0.18905,1.94134 -0.76364,2.31506 -0.15064,0.098 -0.96625,0.25849 -1.81247,0.35671 l -1.53859,0.17857 v 3.50489 c 0,4.02325 0.16565,4.38065 2.03035,4.38065 2.25053,0 2.88769,2.87302 0.89784,4.04846 -0.92723,0.54772 -3.74418,0.59193 -4.92568,0.0773 z"
           id="path14" /><path
           id="path15"
           style="fill:#2a2e37;stroke-width:1.63262"
           d="m 227.28147,-89.448566 c -0.46731,0.0318 -0.95742,0.23544 -1.418,0.63148 l -0.74208,0.63821 -0.0749,10.75076 -0.0749,10.75025 0.81494,0.81494 c 0.69786,0.69785 0.95026,0.79253 1.76113,0.66094 1.9321,-0.31354 1.84646,0.15883 1.99936,-11.02 0.0755,-5.52076 0.0444,-10.54425 -0.0687,-11.16314 -0.25092,-1.37216 -1.16869,-2.13341 -2.19677,-2.06344 z m -62.41583,0.031 c -0.45811,1.8e-4 -0.72483,0.18016 -1.24747,0.7028 l -0.80615,0.80616 0.008,10.66963 c 0.009,11.16594 0.004,11.11334 1.18235,11.81892 0.74127,0.44372 2.29261,0.16649 2.84427,-0.5085 0.42414,-0.51895 0.46303,-1.47259 0.46303,-11.3559 0,-12.09541 0.0521,-11.76592 -1.90583,-12.07936 -0.2118,-0.0339 -0.38577,-0.0538 -0.53847,-0.0537 z m 54.99044,7.35304 c -0.55157,0.002 -1.07996,0.22802 -1.4335,0.67748 l -0.51935,0.66043 -1.51929,-0.69557 c -1.32864,-0.60825 -1.74633,-0.67675 -3.32796,-0.54415 -0.99475,0.0834 -2.33693,0.3856 -2.98277,0.67128 -1.44748,0.64029 -3.11658,2.32257 -3.89071,3.92172 -0.71392,1.47475 -0.96208,4.33923 -0.52814,6.09524 0.67026,2.71229 2.91531,5.07493 5.52111,5.80946 1.75616,0.49503 4.25072,0.29421 5.57227,-0.44855 l 1.07591,-0.60462 0.51159,0.63201 c 0.65285,0.80624 2.37059,0.87819 3.19309,0.13384 0.53183,-0.4813 0.55035,-0.74145 0.55035,-7.74526 v -7.24711 l -0.64957,-0.64905 c -0.44661,-0.44662 -1.02146,-0.66911 -1.57303,-0.66715 z m -22.84357,0.0739 c -1.99528,0.0389 -3.69892,0.74823 -5.31233,2.19883 -2.45118,2.20381 -3.34726,6.04582 -2.15853,9.25422 0.81656,2.20392 3.00321,4.36005 5.02398,4.95422 3.61552,1.06308 7.76141,-0.0506 8.87543,-2.38435 0.38348,-0.80335 0.37886,-0.94474 -0.0646,-1.85209 -0.4058,-0.83031 -0.62849,-0.99466 -1.4397,-1.06246 -0.68455,-0.0572 -1.24249,0.11127 -1.9451,0.58808 -1.42618,0.96782 -2.60566,1.1196 -4.04575,0.51986 -1.37099,-0.57095 -2.11783,-1.44143 -2.4319,-2.83394 -0.83242,-3.69086 3.34013,-6.54721 6.39083,-4.37492 1.73358,1.23442 3.63289,0.43723 3.6468,-1.53066 0.005,-0.63183 -0.22843,-1.03837 -0.96686,-1.68672 -1.32926,-1.1671 -2.49721,-1.60598 -4.69894,-1.76578 -0.29753,-0.0216 -0.58829,-0.0298 -0.87333,-0.0243 z m -18.48414,0.0429 c -1.35556,-0.004 -2.70227,0.2148 -3.54552,0.65629 -1.60312,0.83933 -3.09283,2.2983 -3.82147,3.74241 -0.80147,1.58843 -0.99483,2.46642 -0.96945,4.40128 0.0458,3.49299 2.34718,6.61688 5.63015,7.6414 1.56566,0.48866 3.80827,0.47644 5.5118,-0.0295 2.08567,-0.61937 4.54781,-3.12759 5.16971,-5.26686 1.23821,-4.25927 -0.5446,-8.52398 -4.37699,-10.47016 -0.87827,-0.44599 -2.24267,-0.67135 -3.59823,-0.6749 z m 35.40301,4.18424 c 0.35733,0.0258 0.72748,0.10619 1.11311,0.24082 2.95423,1.03137 3.55973,5.52301 0.99115,7.352 -0.79772,0.56798 -2.453,0.88442 -3.34967,0.64079 -1.84824,-0.5022 -3.22006,-2.74083 -2.91713,-4.76095 0.13247,-0.88334 0.43446,-1.4375 1.20148,-2.20452 0.93023,-0.93022 1.88906,-1.34561 2.96106,-1.26814 z m -35.67069,0.0191 c 1.19896,-0.004 2.72092,0.65389 3.32279,1.49914 1.61778,2.27197 0.94769,5.34988 -1.40818,6.46782 -1.21912,0.5785 -1.9492,0.54253 -3.34347,-0.16485 -1.6274,-0.82566 -2.5211,-2.55581 -2.25102,-4.35684 0.23169,-1.54506 1.71247,-3.12425 3.18947,-3.40134 0.15447,-0.029 0.31913,-0.0434 0.49041,-0.0439 z" /></g><g
         id="g13"
         transform="matrix(0.45796996,0,0,0.45796996,26.988214,92.197558)"
         style="stroke-width:2.18355"><path
           id="path11-2"
           style="fill:#ffffff;stroke-width:2.18355"
           d="m 106.63634,-22.884942 c -6.896689,-0.0027 -9.310881,0.360771 -15.121428,2.275943 -14.944314,4.925687 -26.292562,17.7865699 -30.564439,34.639022 -1.357986,5.357224 -1.66815,8.475221 -1.840389,18.507695 0.114671,9.718377 -0.254963,17.515353 -0.472791,21.141335 -0.176135,1.220287 -0.568465,4.493196 -0.824846,6.463363 -0.31739,2.438965 -1.123211,7.053186 -1.79074,10.254721 -1.790312,8.586502 -1.911517,9.551826 -1.508645,11.991298 0.898199,5.438806 5.728377,8.87181 11.635859,9.790957 4.842864,0.7535 9.56675,-0.905774 14.939757,-5.246969 1.097261,-0.886541 2.896674,-2.081103 3.997852,-2.655079 3.625926,-1.889955 6.040049,-1.33431 10.465728,2.41022 4.822922,4.080642 6.949402,5.56799 11.084082,5.547118 4.5501,-0.02302 5.80175,-1.073473 10.68012,-5.16234 1.53482,-1.28642 3.45544,-2.675806 4.26753,-3.088377 2.75265,-1.39843 5.56271,-0.871532 8.82281,1.656462 6.40332,4.965365 11.30692,6.632621 16.08055,6.637134 1.55972,0.0012 3.42394,-0.162266 4.14228,-0.363339 4.93651,-1.381756 8.0426,-4.525309 8.98642,-9.093617 0.46654,-2.258188 0.25956,-3.862921 -1.33374,-10.333708 -0.70746,-2.873175 -1.3805,-5.975596 -1.49511,-6.894404 -0.0913,-0.732061 -0.15262,-1.244687 -0.26629,-1.59553 l -1.49624,-11.78142 c -0.54958,-4.942125 -0.80678,-8.701249 -1.08211,-15.848102 -0.54173,-14.061654 -1.12737,-18.516934 -3.44043,-26.147959 -4.36007,-14.3842717 -15.17795,-26.082001 -28.34379,-30.649068 -5.86569,-2.03474 -8.50514,-2.452648 -15.522,-2.455356 z M 88.112845,10.084076 c -1.436847,-0.089415 -2.922596,0.256176 -4.056527,1.061806 -4.110593,2.920473 -3.67213,9.521111 0.788738,11.872819 0.519844,0.274054 1.646985,0.476515 2.686673,0.481818 1.439284,0.0073 2.085856,-0.160217 3.293743,-0.853055 3.86108,-2.214697 4.380139,-7.681118 1.046008,-11.01525 -0.93433,-0.93433 -2.321787,-1.458728 -3.758635,-1.548138 z m 36.050625,0.0045 c -1.99957,-0.0084 -3.26003,0.520854 -4.64893,1.95097 -3.30132,3.39926 -2.11022,9.421745 2.20486,11.143884 0.40556,0.161853 1.55163,0.302182 2.54562,0.312562 1.50385,0.01575 2.03737,-0.127138 3.18204,-0.853056 3.41793,-2.167596 4.1319,-6.945153 1.54475,-10.337093 -1.08108,-1.417366 -2.80359,-2.208806 -4.82834,-2.217267 z M 113.4258,25.461644 c -0.073,0.0037 -0.11735,0.05911 -0.11735,0.186183 0,0.180731 -0.39188,-0.003 -0.64882,0.0158 -1.05296,0.07766 -1.36191,0.276675 -2.2387,1.434172 -1.40387,1.853321 -2.40512,2.42528 -4.31606,2.470025 -1.9926,0.04665 -3.2567,-0.640844 -4.54399,-2.47341 -0.82294,-1.171513 -1.09492,-1.351225 -2.169873,-1.430787 -1.663725,-0.123138 -2.456484,0.656217 -2.456484,2.41812 0,2.299831 2.380023,4.951708 5.373347,5.986058 1.72334,0.595482 5.14095,0.61763 7.06479,0.04626 2.89898,-0.860897 5.77054,-3.862946 5.77054,-6.032321 0,-0.497023 -0.28379,-1.264988 -0.63077,-1.706112 -0.3047,-0.387373 -0.84827,-0.926155 -1.08663,-0.913988 z" /><path
           style="fill:#71d5a7;stroke-width:2.18355"
           d="m 70.515116,79.854411 c -2.49799,-0.31965 -4.008113,-1.55032 -4.386289,-3.5746 -0.183697,-0.98328 -0.09151,-1.92589 0.435005,-4.44767 0.803759,-3.84969 1.915135,-9.57277 2.027953,-10.44305 0.07947,-0.61303 0.113918,-0.60165 1.397672,0.46148 2.650669,2.19512 6.881104,3.90959 11.207999,4.54226 2.813739,0.41143 9.083405,0.20213 11.552889,-0.38567 7.662515,-1.82385 12.353405,-4.49108 19.322815,-10.9869 3.65682,-3.40832 7.41656,-5.80816 11.24085,-7.17501 l 2.20403,-0.78774 6.94184,-2.05684 c 3.93858,-1.16699 6.31458,2.11054 7.07003,2.42621 1.43679,0.60033 3.2304,2.40479 3.87139,3.89481 0.43047,1.00064 0.68387,1.29779 1.02216,1.1986 0.24739,-0.0725 -0.21721,2.41567 1.01644,2.22015 0.5152,-0.0816 -0.66618,3.24893 -0.66618,3.24893 0.23641,2.90066 0.52624,5.79554 0.52624,5.79554 0.27251,1.50183 0.92884,4.39747 1.45853,6.43476 1.10817,4.26234 1.2642,6.50496 0.52891,7.60211 -1.14515,1.70873 -3.81249,2.54329 -6.55533,2.05103 -2.32503,-0.41727 -3.38113,-0.93488 -6.51801,-3.19458 -1.49695,-1.07835 -3.34242,-2.35144 -4.10104,-2.82908 -2.97269,-1.87166 -6.75943,-2.397 -10.01656,-1.38962 -1.99524,0.6171 -3.01229,1.26375 -6.6225,4.21069 -3.14256,2.56519 -4.52412,3.25151 -6.56839,3.26301 -2.31809,0.013 -4.03623,-0.81751 -7.564471,-3.65673 -1.733134,-1.39466 -3.56787,-2.74931 -4.077193,-3.01033 -1.594256,-0.81703 -3.733289,-1.32695 -5.538126,-1.32024 -3.50061,0.013 -5.357845,0.79307 -9.807706,4.11925 -4.646629,3.47326 -6.388024,4.17501 -9.402938,3.78921 z"
           id="path12" /><path
           d="m 108.50075,-13.615092 c 17.27696,0.762641 31.41749,13.19664351 35.5744,31.739928 0.89536,3.994033 1.49615,10.362322 1.8185,19.290021 0.1389,3.847192 0.23322,7.020672 0.21045,7.052712 -0.0228,0.03204 -1.18257,-0.334809 -2.57827,-0.815887 -6.32434,-2.179915 -14.67868,-1.646301 -21.85209,1.395429 -4.54308,1.926394 -8.93283,4.891036 -13.42769,9.069786 -5.79273,5.385349 -11.069707,8.307239 -17.244881,9.547878 -6.69711,1.345512 -12.158133,0.834728 -17.156404,-1.603721 -2.896629,-1.413142 -4.715137,-3.147704 -5.855858,-5.58821 -0.359103,-0.768285 -0.531366,-2.033878 -0.677749,-3.225796 l 0.441405,-18.83027 C 68.031842,22.50988 68.497951,18.972003 70.757117,12.481583 72.933981,6.2275933 76.194936,1.1852718 81.034544,-3.4121239 c 6.634224,-6.3021827 14.79114,-9.7734371 23.970606,-10.1986511 1.17764,-0.05456 2.3438,-0.05516 3.4956,-0.0043 z"
           style="fill:#f9f9f9;stroke-width:2.18355"
           id="path1" /><path
           id="path11"
           style="fill:#2a2e37;stroke-width:2.18355"
           d="m 106.50881,-16.29691 c -6.11283,-0.0024 -8.252661,0.319948 -13.402802,2.017448 -13.245794,4.3658498 -23.303469,15.7644248 -27.089819,30.701486 -1.203642,4.74834 -1.478762,7.511948 -1.631425,16.404166 0.141585,11.999341 -0.550197,20.693571 -0.550197,20.693571 l 1.396033,0.19586 c 0.709533,0.10763 2.004735,0.20642 2.87786,0.21962 l 1.5875,0.0238 0.468812,-19.987154 c 0.258817,-11.03431 0.691237,-14.313698 2.784843,-20.328475 2.017341,-5.7956722 5.03902,-10.4683372 9.523967,-14.7288172 6.148036,-5.840333 13.707901,-9.0565328 22.214668,-9.4505858 17.46149,-0.808858 32.09748,11.07959082 36.20657,29.409574 0.82974,3.701334 1.38593,9.602989 1.68465,17.876429 0.12872,3.565259 0.21696,6.506339 0.19586,6.536039 -0.0211,0.0297 -1.09662,-0.31073 -2.39004,-0.75655 -5.86087,-2.02016 -13.60272,-1.52587 -20.25044,1.29295 -4.21014,1.78522 -8.27771,4.53317 -12.44317,8.40569 -5.36822,4.99069 -10.25933,7.69831 -15.981969,8.84803 -6.206314,1.24691 -11.266793,0.77406 -15.898772,-1.48569 -2.684354,-1.30958 -4.369422,-2.91787 -5.426542,-5.17953 -0.774153,-1.65627 -0.612678,-5.80315 -1.387012,-5.79515 -1.049794,0.0103 -4.814543,2.38312 -4.957172,2.52575 -0.05851,0.0585 -0.524452,3.99014 -0.805767,6.15191 -0.281316,2.16176 -0.995323,6.25222 -1.586983,9.08988 -1.586831,7.61059 -1.694469,8.46557 -1.337386,10.62778 0.796113,4.82065 4.053298,7.86334 9.289355,8.67802 v 5.2e-4 c 4.292441,0.66786 8.47924,-0.80257 13.241569,-4.65036 0.972551,-0.78578 2.566916,-1.84512 3.542937,-2.35386 3.213816,-1.67515 5.354282,-1.18212 9.276953,2.13682 4.274768,3.61685 7.183169,4.93499 10.847919,4.91649 4.03295,-0.0204 6.16693,-0.95129 10.49083,-4.57543 1.36038,-1.14021 3.06241,-2.37214 3.7822,-2.73782 2.43979,-1.23949 4.93011,-0.77202 7.81968,1.46865 5.67555,4.40102 8.99809,5.87833 13.22916,5.88233 1.38245,10e-4 3.0344,-0.14373 3.6711,-0.32195 4.37544,-1.22471 7.12886,-4.01088 7.9654,-8.05997 0.41352,-2.00153 0.23037,-3.42379 -1.18184,-9.15913 -0.62705,-2.54662 -1.22339,-5.29636 -1.32498,-6.11074 -0.27543,-2.20783 -0.23525,-2.18227 -2.80758,-1.81074 -1.22152,0.17643 -2.47488,0.41531 -2.78484,0.53071 l -0.56328,0.20981 0.49506,2.73058 c 0.27251,1.50183 0.92914,4.39746 1.45883,6.43475 1.10817,4.26234 1.26394,6.50497 0.52865,7.60212 -1.14515,1.70873 -3.81232,2.5433 -6.55516,2.05104 -2.32503,-0.41727 -3.38107,-0.93494 -6.51795,-3.19464 -1.49695,-1.07835 -3.34242,-2.35164 -4.10104,-2.82928 -2.97269,-1.87166 -6.75931,-2.39696 -10.01644,-1.38958 -1.99524,0.6171 -3.01264,1.26365 -6.62285,4.21059 -3.14256,2.56519 -4.52381,3.25187 -6.56808,3.26337 -2.31809,0.013 -4.03615,-0.8174 -7.564391,-3.65662 -1.733137,-1.39466 -3.56795,-2.74965 -4.077273,-3.01067 -1.594256,-0.81703 -3.733327,-1.32733 -5.538164,-1.32033 -3.506602,0.0131 -5.36784,0.79675 -9.80767,4.12843 -4.067889,3.05257 -5.75344,3.84187 -8.18813,3.83387 -3.189454,-0.0101 -5.164252,-1.28928 -5.601209,-3.6282 -0.183697,-0.98328 -0.09139,-1.92601 0.435116,-4.44779 0.803759,-3.84969 1.914965,-9.5725 2.027783,-10.44278 0.07947,-0.61303 0.114093,-0.60166 1.397847,0.46147 2.650669,2.19512 6.881207,3.90918 11.208102,4.54185 2.813739,0.41143 9.083299,0.20229 11.552783,-0.38551 7.662516,-1.82385 12.353446,-4.49111 19.322856,-10.98693 4.74559,-4.42311 9.12595,-6.85742 14.80374,-8.22637 7.75765,-1.87042 14.57461,-0.005 16.52199,4.52221 0.34148,0.79379 1.42161,10.43414 1.60917,10.36214 0.17578,-0.0675 1.53804,-0.3101 2.79104,-0.46044 l 3.1083,0.93682 -1.50991,-11.88652 c -0.48711,-4.38042 -0.71455,-7.71264 -0.95859,-14.047206 -0.48016,-12.463455 -0.99978,-16.412137 -3.04995,-23.175846 -3.86452,-12.74940518 -13.45253,-23.117795 -25.12198,-27.165784 -5.19902,-1.803479 -7.53898,-2.173695 -13.75833,-2.176095 z M 90.091205,12.92525 c -1.27354,-0.07925 -2.591111,0.226963 -3.596163,0.941028 -3.643397,2.588542 -3.25468,8.438968 0.699182,10.523389 0.46076,0.242906 1.45973,0.422147 2.38125,0.426847 1.2757,0.0065 1.849116,-0.142451 2.919718,-0.756543 3.422243,-1.962982 3.882261,-6.807526 0.927076,-9.762712 -0.828138,-0.828137 -2.057523,-1.292761 -3.331063,-1.372009 z m 31.953085,0.0036 c -1.7723,-0.0074 -2.89014,0.462037 -4.12119,1.729611 -2.9261,3.012912 -1.86973,8.349992 1.95492,9.876399 0.35946,0.143457 1.37465,0.268303 2.25567,0.277503 1.33293,0.01396 1.80646,-0.112613 2.82102,-0.756026 3.02947,-1.921234 3.66202,-6.156325 1.36891,-9.162749 -0.95821,-1.256273 -2.4847,-1.957238 -4.27933,-1.964738 z m -10.19627,13.80484 c -0.93328,0.06884 -1.20775,0.244783 -1.98489,1.270723 -1.24431,1.642679 -2.13134,2.150387 -3.82509,2.190047 -1.76613,0.04135 -2.88669,-0.568865 -4.02767,-2.193148 -0.7294,-1.038363 -0.97062,-1.197619 -1.92339,-1.268139 -1.474631,-0.109142 -2.177131,0.582404 -2.177131,2.144055 0,2.03844 2.109381,4.388311 4.762501,5.305101 1.52747,0.5278 4.55645,0.54773 6.26163,0.0413 2.56949,-0.76305 5.11545,-3.424147 5.11545,-5.346958 0,-0.440533 -0.16367,-1.210291 -0.55914,-1.512052 -0.87208,-0.665432 -0.87,-0.533348 -1.64227,-0.630929 z" /></g></g></g></svg>
